<svg xmlns="http://www.w3.org/2000/svg" viewBox="0 0 64 64">
  <defs>
    <linearGradient id="g" x1="0%" y1="0%" x2="100%" y2="100%">
      <stop offset="0%"   stop-color="#FF3366"/>
      <stop offset="50%"  stop-color="#FFD700"/>
      <stop offset="100%" stop-color="#00D9FF"/>
    </linearGradient>
  </defs>
  <!-- Croche musicale -->
  <path d="M22 46
           C22 50.4 18.4 54 14 54
           C9.6 54 6 50.4 6 46
           C6 41.6 9.6 38 14 38
           C16.2 38 18.2 38.9 19.6 40.4
           L19.6 18 L46 12 L46 30.4
           C44.6 29.1 42.7 28.3 40.6 28.3
           C36.2 28.3 32.6 31.9 32.6 36.3
           C32.6 40.7 36.2 44.3 40.6 44.3
           C45 44.3 48.6 40.7 48.6 36.3
           L48.6 10 L17 16.5 L17 46
           C17 50.4 13.4 54 9 54"
        fill="url(#g)"
        stroke="none"/>
  <!-- Forme simplifiée : note ronde + hampe + croche -->
  <ellipse cx="13" cy="47" rx="7" ry="5" fill="url(#g)"/>
  <rect x="20" y="18" width="3" height="29" fill="url(#g)"/>
  <ellipse cx="39" cy="37" rx="7" ry="5" fill="url(#g)"/>
  <rect x="46" y="10" width="3" height="27" fill="url(#g)"/>
  <path d="M23 18 L49 10 L49 18 L23 26 Z" fill="url(#g)"/>
</svg>
